# xmcd
#
# Track frame offsets: 
#        150
#        12992
#        25002
#        40717
#        54575
#        72260
#        89130
#        101390
#        114222
#        124375
#        143998
#        160960
#        176595
#        190040
#        214152
#        227610
#        243120
#
# Disc length: 3401 seconds
#
# Revision: 0
# Processed by: cddbd v1.5.2PL0 Copyright (c) Steve Scherf et al.
# Submitted via: ExactAudioCopy v1.0b3
#
DISCID=e10d4711
DTITLE=Butch Baldassari and Van Manakas - Leavin' Tennessee
DYEAR=1900
DGENRE=Bluegrass
TTITLE0=Leavin' Tennessee
TTITLE1=Bell Buckle Belle
TTITLE2=Apache
TTITLE3=The Waltz
TTITLE4=Cotton Patch Rag
TTITLE5=Fiddler's Dream
TTITLE6=Jacob's Ladder
TTITLE7=Bitter Creek
TTITLE8=Red Bone
TTITLE9=Old South Waltz
TTITLE10=Lucky From Kentucky
TTITLE11=I Am A Pilgrim
TTITLE12=Bluegrass In The Backroads
TTITLE13=Bossman
TTITLE14=Indian Echo
TTITLE15=Spider Waltz
TTITLE16=Yellow Barber
EXTD=
EXTT0=
EXTT1=
EXTT2=
EXTT3=
EXTT4=
EXTT5=
EXTT6=
EXTT7=
EXTT8=
EXTT9=
EXTT10=
EXTT11=
EXTT12=
EXTT13=
EXTT14=
EXTT15=
EXTT16=
PLAYORDER=
